IKResults
version=1
nRows=11
nColumns=40
inDegrees=yes

Units are S.I. units (second, meters, Newtons, ...)
Angles are in degrees.

endheader
time	pelvis_tilt	pelvis_list	pelvis_rotation	pelvis_tx	pelvis_ty	pelvis_tz	hip_flexion_r	hip_adduction_r	hip_rotation_r	knee_angle_r	knee_angle_r_beta	ankle_angle_r	subtalar_angle_r	mtp_angle_r	hip_flexion_l	hip_adduction_l	hip_rotation_l	knee_angle_l	knee_angle_l_beta	ankle_angle_l	subtalar_angle_l	mtp_angle_l	lumbar_extension	lumbar_bending	lumbar_rotation	arm_flex_r	arm_add_r	arm_rot_r	elbow_flex_r	pro_sup_r	wrist_flex_r	wrist_dev_r	arm_flex_l	arm_add_l	arm_rot_l	elbow_flex_l	pro_sup_l	wrist_flex_l	wrist_dev_l
      0.00000000	     -1.53774489	      3.27756802	     -2.04122401	     -0.13302939	      0.91127094	     -0.01553453	     -6.45697244	     -9.14918079	    -10.06795262	     37.35614518	      0.65198773	      2.09903824	      0.00000000	      0.00000000	     19.28209206	      0.91351739	     -2.44090047	     17.10478749	      0.29853486	      3.29961994	      0.00000000	      0.00000000	      1.50505719	     -4.18979932	      9.39727103	      3.85341316	     -5.55824151	     -5.28858986	     21.29666649	     41.36965244	      0.00000002	      0.00000001	     -4.50814147	     -8.79605087	     21.27510131	     16.33446108	     36.69812577	      0.00000000	      0.00000000
      0.01000000	     -1.62643766	      3.31112015	     -2.16977328	     -0.13241086	      0.91189715	     -0.01779699	     -4.83459609	     -9.66298738	     -9.38833647	     40.47710677	      0.70645878	     -0.08535984	      0.00000000	      0.00000000	     18.72907702	      1.16785321	     -2.28512200	     17.23790297	      0.30085816	      3.64618755	      0.00000000	      0.00000000	      1.58651145	     -4.25807117	      9.23816793	      3.39751185	     -5.44945187	     -5.43604319	     21.17603139	     41.35275875	      0.00000002	      0.00000001	     -4.13740587	     -8.72455986	     21.35117879	     16.39678820	     36.74169244	      0.00000000	      0.00000000
      0.02000000	     -1.67278019	      3.39762087	     -2.36869034	     -0.13207214	      0.91228982	     -0.01983175	     -3.18394910	    -10.18051047	     -8.64498237	     43.54100484	      0.75993389	     -2.40597511	      0.00000000	      0.00000000	     18.10940883	      1.44576747	     -2.34750410	     17.30221954	      0.30198070	      4.36707364	      0.00000000	      0.00000000	      1.59618412	     -4.40919040	      9.09427853	      3.00004329	     -5.32161514	     -5.55960825	     20.97364788	     41.32169913	      0.00000002	      0.00000001	     -3.69087698	     -8.74968181	     21.40160627	     16.52396681	     36.80046103	      0.00000000	      0.00000000
      0.03000000	     -1.62992344	      3.50233968	     -2.64261687	     -0.13174185	      0.91257450	     -0.02166607	     -1.48048621	    -10.71577430	     -7.83970599	     46.61038737	      0.81350473	     -5.24346195	      0.00000000	      0.00000000	     17.40145776	      1.68069643	     -2.62508246	     17.45961562	      0.30472778	      5.41793961	      0.00000000	      0.00000000	      1.43875115	     -4.57027424	      9.08589350	      2.65872501	     -5.11443286	     -5.75317386	     20.63739666	     41.26363494	      0.00000002	      0.00000001	     -3.27790304	     -8.80813817	     21.42761955	     16.70841496	     36.91052486	      0.00000000	      0.00000000
      0.04000000	     -1.60381696	      3.44342275	     -2.88951594	     -0.13167893	      0.91287543	     -0.02330617	      0.32808690	    -10.78037681	     -6.42368106	     49.73312647	      0.86800680	     -7.00229968	      0.00000000	      0.00000000	     16.65488495	      1.73873703	     -2.99256329	     17.40866789	      0.30383857	      6.12750523	      0.00000000	      0.00000000	      1.30389112	     -4.61836154	      8.84935918	      2.42310991	     -5.00004592	     -5.82791443	     20.38960268	     41.21799660	      0.00000002	      0.00000001	     -2.81226142	     -8.86791390	     21.41268720	     16.92119437	     36.98918987	      0.00000000	      0.00000000
      0.05000000	     -1.44697814	      3.33260938	     -3.04339616	     -0.13188033	      0.91356881	     -0.02462337	      1.97163305	    -10.60400183	     -5.10178137	     52.48913739	      0.91610827	     -8.90460638	      0.00000000	      0.00000000	     15.78282314	      1.71869434	     -3.20402539	     17.43672563	      0.30432827	      6.84035113	      0.00000000	      0.00000000	      0.95353708	     -4.67520420	      8.54209066	      2.23621692	     -4.80131547	     -5.85736398	     20.12356108	     41.15830814	      0.00000002	      0.00000001	     -2.24589433	     -8.97967013	     21.37885722	     17.14725153	     37.07127933	      0.00000000	      0.00000000
      0.06000000	     -1.37286267	      3.17675387	     -3.21428310	     -0.13211242	      0.91421527	     -0.02586464	      3.76491061	    -10.37566388	     -3.93629781	     55.06893645	      0.96113426	    -10.87239552	      0.00000000	      0.00000000	     14.95604637	      1.65453557	     -3.29821176	     17.42354324	      0.30409820	      7.81893474	      0.00000000	      0.00000000	      0.70900127	     -4.62107629	      8.22784828	      2.07944799	     -4.60161849	     -5.85378259	     19.61223422	     41.02001810	      0.00000002	      0.00000001	     -1.71157232	     -9.09027819	     21.21249559	     17.43604588	     37.23056058	      0.00000000	      0.00000000
      0.07000000	     -1.32645909	      2.98543323	     -3.30828851	     -0.13255125	      0.91504445	     -0.02689872	      5.50908220	     -9.88971518	     -2.85807543	     57.48900649	      1.00337245	    -10.72701560	      0.00000000	      0.00000000	     14.14990409	      1.54074777	     -3.37761743	     17.32462375	      0.30237173	      8.22353916	      0.00000000	      0.00000000	      0.41610198	     -4.58263190	      7.72904266	      1.94610071	     -4.35762778	     -5.83732519	     19.44644592	     40.96403837	      0.00000002	      0.00000001	     -1.14666454	     -9.24397399	     21.17021766	     17.58909018	     37.29534011	      0.00000000	      0.00000000
      0.08000000	     -1.26668142	      2.76922518	     -3.43012651	     -0.13283935	      0.91578584	     -0.02783878	      7.15031978	     -9.42524449	     -2.06512182	     59.66896296	      1.04141986	     -9.27046226	      0.00000000	      0.00000000	     13.21968977	      1.41892288	     -3.36778238	     17.08354083	      0.29816404	      9.07949802	      0.00000000	      0.00000000	      0.33012403	     -4.36777036	      7.25374055	      1.78690982	     -4.14436571	     -5.75040698	     18.98444976	     40.81273494	      0.00000002	      0.00000001	     -0.46037357	     -9.40922834	     20.88199622	     17.88999867	     37.47389462	      0.00000000	      0.00000000
      0.09000000	     -1.17677284	      2.52441513	     -3.48773582	     -0.13328693	      0.91674180	     -0.02878980	      8.74508979	     -8.87943457	     -1.37528660	     61.37382309	      1.07117529	     -8.91344581	      0.00000000	      0.00000000	     12.31044199	      1.23348884	     -3.48989307	     16.85978211	      0.29425871	      9.42769082	      0.00000000	      0.00000000	      0.00677911	     -4.32980711	      6.63333833	      1.64776792	     -3.94383769	     -5.71874630	     18.85893062	     40.75793009	      0.00000002	      0.00000001	      0.07511443	     -9.57418838	     20.81171927	     17.99556741	     37.53769396	      0.00000000	      0.00000000
      0.10000000	     -1.07477042	      2.17803302	     -3.42848269	     -0.13378677	      0.91770465	     -0.02975179	     10.21088034	     -8.26319470	     -1.06163451	     62.91149354	      1.09801270	     -7.17000354	      0.00000000	      0.00000000	     11.20473614	      1.01714637	     -3.34309979	     16.27451124	      0.28404381	     10.06505603	      0.00000000	      0.00000000	     -0.17819226	     -4.13728456	      5.77042192	      1.45762155	     -3.72903289	     -5.55161801	     18.44329592	     40.57333592	      0.00000002	      0.00000001	      0.50961629	     -9.75251974	     20.44528164	     17.95147077	     37.70432205	      0.00000000	      0.00000000
